Coordinates
version=1
nRows=17
nColumns=34
inDegrees=yes

Units are S.I. units (second, meters, Newtons, ...)
If the header above contains a line with 'inDegrees', this indicates whether rotational values are in degrees (yes) or radians (no).

endheader
time	pelvis_tilt	pelvis_list	pelvis_rotation	pelvis_tx	pelvis_ty	pelvis_tz	hip_flexion_r	hip_adduction_r	hip_rotation_r	knee_angle_r	ankle_angle_r	subtalar_angle_r	mtp_angle_r	hip_flexion_l	hip_adduction_l	hip_rotation_l	knee_angle_l	ankle_angle_l	subtalar_angle_l	mtp_angle_l	lumbar_extension	lumbar_bending	lumbar_rotation	arm_flex_r	arm_add_r	arm_rot_r	elbow_flex_r	pro_sup_r	arm_flex_l	arm_add_l	arm_rot_l	elbow_flex_l	pro_sup_l
      7.91666670	      5.57707575	     -6.23191227	      2.47054218	      0.55686668	      0.94801346	     -0.28506577	     51.82043386	     -1.50112005	     -0.81677132	     64.73918945	     -5.55207197	    -12.54310570	      0.00000000	      3.27018837	      2.58151716	      3.94621119	     20.10580721	      8.05543885	     -4.50588787	      0.00000000	    -18.56009925	      7.70482297	      2.73522186	     41.68578223	     11.75430217	     49.66321338	    123.69738825	    113.28547418	     62.88046899	     21.41446715	     79.26898629	    122.84962692	    103.17390639
      7.93333330	      5.50162401	     -6.21586567	      2.66568658	      0.55937668	      0.94998269	     -0.28728468	     51.31644852	     -1.66247334	     -0.63762219	     64.41373086	     -4.64874414	    -12.27743582	      0.00000000	      2.71691461	      2.74472795	      4.23005562	     19.09904494	      7.66007938	     -4.48015063	      0.00000000	    -18.47571735	      7.89698510	      2.47958673	     41.07020168	     11.80314779	     49.31394885	    123.72153757	    113.35053781	     62.14885821	     21.49376161	     79.50389240	    122.78818674	    103.24986286
      7.95000000	      5.77026798	     -5.92386001	      2.50319217	      0.55881311	      0.94672085	     -0.28674134	     51.21646753	     -1.86437607	     -0.05361494	     65.20900122	     -3.28954589	    -11.80623653	      0.00000000	      2.90512915	      3.09945605	      4.01719790	     19.81485876	      7.77192531	     -5.03907162	      0.00000000	    -18.76934339	      7.60831414	      2.14880036	     40.59962224	     12.18757080	     48.55839994	    123.48038129	    113.46765894	     62.40598175	     21.44234754	     78.90588918	    122.51041697	    103.35663762
      7.96666670	      5.70455170	     -5.78121638	      2.31399921	      0.55777891	      0.94603035	     -0.28680856	     51.49447773	     -1.95959088	      0.14541942	     65.25751274	     -3.21515523	    -12.00601779	      0.00000000	      2.91916456	      3.32917857	      3.96272764	     19.33764545	      7.68443758	     -4.98570930	      0.00000000	    -18.68304824	      7.45673284	      1.95952815	     40.31660771	     12.35492845	     48.53886777	    123.59097073	    113.52527030	     62.29311837	     21.46244441	     78.63796828	    122.47492789	    103.39432057
      7.98333330	      5.73323011	     -5.70222697	      2.27221785	      0.55652948	      0.94570072	     -0.28698013	     51.57776042	     -1.96949784	      0.17062252	     65.14312491	     -3.18048970	    -12.00958291	      0.00000000	      3.09026592	      3.42764285	      3.91157744	     19.36943855	      7.68295366	     -5.01105401	      0.00000000	    -18.83919269	      7.50370749	      1.89456802	     40.28966148	     12.31668022	     48.47812688	    123.56300923	    113.52840920	     62.31165963	     21.49354414	     78.59423710	    122.47744515	    103.39697394
      8.00000000	      5.51250768	     -5.63401309	      2.40936984	      0.56036640	      0.94930183	     -0.28823669	     51.20214921	     -1.98678830	      0.10032559	     63.92643369	     -3.53001706	    -11.77284814	      0.00000000	      3.05718412	      3.50860459	      3.85846455	     18.92577579	      7.35847319	     -4.97078316	      0.00000000	    -18.52791152	      7.43466845	      1.58282443	     39.81472971	     12.52750348	     48.41946520	    123.63301661	    113.57130153	     62.15321341	     21.88299921	     78.42920378	    122.62415666	    103.41996890
      8.01666670	      5.35407811	     -5.62912085	      2.53470049	      0.55782688	      0.94465303	     -0.28943164	     51.43562453	     -2.14418165	     -0.01116645	     63.51809969	     -3.32561964	    -11.95149061	      0.00000000	      2.80203933	      3.59919188	      4.11093260	     18.28050044	      7.93452112	     -4.97466007	      0.00000000	    -18.42860389	      7.57881553	      1.60460479	     39.88170137	     12.73186028	     48.28597860	    123.79368219	    113.59307591	     62.16904550	     22.08663744	     78.22921298	    122.73921004	    103.43758245
      8.03333330	      5.30978069	     -5.48257854	      2.66790141	      0.55887525	      0.94401899	     -0.28947335	     51.49462251	     -2.43255126	     -0.17733659	     63.10162947	     -3.51764288	    -11.72655706	      0.00000000	      2.73919013	      3.81715711	      4.37693873	     18.31200731	      8.74879928	     -4.92297227	      0.00000000	    -18.53936258	      7.55107508	      1.77486677	     39.79645328	     12.82417374	     48.32864558	    123.99919635	    113.63745488	     61.99417532	     22.31025806	     78.18880436	    122.92453951	    103.48394357
      8.05000000	      5.11114774	     -5.70029029	      2.85190228	      0.56070115	      0.94627091	     -0.28942755	     51.12118977	     -2.37473096	     -0.41248575	     63.17589033	     -3.01921104	    -12.13297547	      0.00000000	      3.42890640	      3.48490169	      4.26586138	     19.19705200	      8.39057735	     -4.43325986	      0.00000000	    -18.38165462	      7.79289140	      2.08219559	     40.08555548	     12.54943211	     49.00525204	    124.48036001	    113.79450817	     61.52113758	     22.72681085	     78.65266543	    122.99057017	    103.64561356
      8.06666670	      4.95378835	     -5.76916516	      2.70284135	      0.56019716	      0.94779532	     -0.28983036	     50.98910449	     -2.28765195	     -0.52364712	     63.01946845	     -2.95265123	    -12.54831860	      0.00000000	      4.02054067	      3.31057716	      3.83071256	     19.85016110	      7.85946660	     -3.94008103	      0.00000000	    -18.36192647	      7.82869131	      2.47879706	     40.41168494	     12.32471313	     50.22435428	    124.61597201	    114.00020478	     61.07048832	     22.88505047	     79.23414423	    122.89320797	    103.80977687
      8.08333330	      4.95200497	     -5.77811232	      2.51113503	      0.56159573	      0.94813933	     -0.29071166	     50.84828366	     -2.31756815	     -0.63993420	     63.13041493	     -2.90002999	    -12.62696026	      0.00000000	      4.03754519	      3.28774121	      3.85068333	     19.98603742	      7.72381350	     -3.87912545	      0.00000000	    -18.34437018	      7.78689832	      2.49559929	     40.37051598	     12.31203355	     50.30777536	    124.61276009	    114.01016303	     61.02896205	     22.86254231	     79.25513932	    122.89270198	    103.81487687
      8.10000000	      4.93200696	     -5.87570061	      2.36687920	      0.55910716	      0.94808336	     -0.28937933	     50.78967386	     -2.02275758	     -0.73415597	     62.62439535	     -2.01768618	    -13.06280513	      0.00000000	      3.91192219	      3.17959936	      3.49412473	     19.98423306	      7.75916887	     -3.75481315	      0.00000000	    -18.56642822	      7.78780739	      2.45906789	     40.22828407	     12.27368604	     51.52088645	    124.62355272	    114.18177330	     60.70923296	     22.56494130	     79.34739581	    122.82890261	    103.88254953
      8.11666670	      4.85962215	     -5.81162338	      2.27122610	      0.55838032	      0.94608400	     -0.28929966	     50.84787873	     -1.97750626	     -0.90566081	     61.52428852	     -2.14213055	    -12.90759256	      0.00000000	      4.20702451	      3.26719671	      3.35303181	     20.34348895	      7.91225198	     -3.90186107	      0.00000000	    -18.72166119	      7.63710063	      2.52863767	     40.81468466	     12.13798651	     51.92321291	    124.57311266	    114.28096101	     61.02503918	     22.50137400	     79.20184251	    122.80428504	    103.92045540
      8.13333330	      4.81940202	     -5.63058534	      2.24984835	      0.56099852	      0.94718961	     -0.28966283	     50.57092807	     -2.09731511	     -0.92818052	     60.35342660	     -2.15583201	    -12.92953556	      0.00000000	      4.02773717	      3.51956654	      3.50516706	     20.32144182	      8.78325154	     -4.22301590	      0.00000000	    -18.61031580	      7.35786040	      2.58302492	     40.94034483	     11.82254636	     52.26520203	    124.38993670	    114.35733897	     60.92808497	     22.43465485	     79.19742074	    122.71164161	    103.94705882
      8.15000000	      4.71330328	     -5.73054970	      2.01639043	      0.56035140	      0.94800724	     -0.29032292	     50.40933763	     -1.99766865	     -1.00458095	     59.72357919	     -1.87376767	    -13.28865672	      0.00000000	      3.84330334	      3.51109638	      3.66679713	     19.88580081	      9.25895042	     -4.41276842	      0.00000000	    -18.49803861	      7.36370524	      2.59624349	     41.07867798	     11.69734376	     52.42392690	    124.25677305	    114.40901657	     61.06502426	     22.21725919	     78.97080088	    122.51912576	    103.95366564
      8.16666670	      4.87941736	     -6.01544155	      1.90797593	      0.55955911	      0.94752959	     -0.29048627	     49.92868987	     -1.79842924	     -1.28449285	     58.44033814	     -1.66073429	    -13.78731828	      0.00000000	      3.29540031	      3.28249705	      3.73986739	     19.32307709	     10.07725395	     -4.86653708	      0.00000000	    -18.82379974	      7.71362000	      2.47709305	     41.41018941	     11.76830089	     52.35285078	    123.46711968	    114.57820348	     61.19082436	     21.92873433	     78.23224499	    122.32670864	    103.98636166
      8.18333330	      4.57229993	     -5.97231647	      2.02405186	      0.55748101	      0.94751380	     -0.29044670	     49.82994400	     -1.88908473	     -1.15355633	     56.90106754	     -1.21347321	    -14.04523337	      0.00000000	      3.50383256	      3.40355651	      3.95897046	     19.06407332	     10.38810665	     -5.10118590	      0.00000000	    -18.90226172	      7.72092005	      2.52582964	     41.80827410	     11.89211588	     51.72967195	    123.42162572	    114.60555549	     61.31372538	     21.84012929	     78.02253827	    122.68109870	    104.00932354
